<?xml version="1.0" standalone="no"?>
<!DOCTYPE svg PUBLIC "-//W3C//DTD SVG 20010904//EN"
 "http://www.w3.org/TR/2001/REC-SVG-20010904/DTD/svg10.dtd">
<svg version="1.0" xmlns="http://www.w3.org/2000/svg"
 width="700.000000pt" height="564.000000pt" viewBox="0 0 700.000000 564.000000"
 preserveAspectRatio="xMidYMid meet">
<metadata>
Created by potrace 1.16, written by Peter Selinger 2001-2019
</metadata>
<g transform="translate(0.000000,564.000000) scale(0.100000,-0.100000)"
fill="#000000" stroke="none">
<path d="M1430 5204 c-145 -39 -257 -153 -295 -300 -14 -54 -15 -284 -13
-2090 l3 -2029 23 -55 c46 -113 129 -196 242 -242 l55 -23 2055 0 2055 0 55
23 c113 46 196 129 242 242 l23 55 0 2055 0 2055 -23 55 c-46 113 -129 196
-242 242 l-55 23 -2035 2 c-1768 2 -2042 0 -2090 -13z m4030 -824 l0 -420
-1960 0 -1960 0 0 420 0 420 1960 0 1960 0 0 -420z m0 -2100 l0 -1400 -1960 0
-1960 0 0 1400 0 1400 1960 0 1960 0 0 -1400z"/>
<path d="M3780 4380 l0 -140 140 0 140 0 0 140 0 140 -140 0 -140 0 0 -140z"/>
<path d="M4340 4380 l0 -140 140 0 140 0 0 140 0 140 -140 0 -140 0 0 -140z"/>
<path d="M4900 4380 l0 -140 140 0 140 0 0 140 0 140 -140 0 -140 0 0 -140z"/>
<path d="M2100 2542 c0 -357 4 -377 83 -456 75 -74 118 -86 318 -86 l159 0 0
-140 0 -140 140 0 140 0 0 560 0 560 -140 0 -140 0 0 -280 0 -280 -140 0 -140
0 0 280 0 280 -140 0 -140 0 0 -298z"/>
<path d="M3390 2825 c-148 -42 -257 -154 -295 -304 -14 -51 -16 -102 -13 -270
4 -184 6 -212 26 -261 45 -112 130 -197 242 -242 43 -17 75 -22 150 -22 75 0
107 5 150 22 112 45 196 129 242 242 22 52 23 69 23 290 0 221 -1 238 -23 290
-46 114 -132 199 -242 241 -72 28 -188 34 -260 14z m181 -288 c61 -40 69 -71
69 -257 0 -137 -3 -171 -18 -199 -50 -99 -177 -105 -239 -12 -22 32 -23 44
-23 210 0 158 2 179 20 209 43 70 128 92 191 49z"/>
<path d="M4060 2542 c0 -357 4 -377 83 -456 75 -74 118 -86 318 -86 l159 0 0
-140 0 -140 140 0 140 0 0 560 0 560 -140 0 -140 0 0 -280 0 -280 -140 0 -140
0 0 280 0 280 -140 0 -140 0 0 -298z"/>
</g>
</svg>
